<svg width="842" height="203" viewBox="0 0 842 203" fill="none" xmlns="http://www.w3.org/2000/svg">
<g clip-path="url(#clip0_8242_2411)">
<mask id="mask0_8242_2411" style="mask-type:luminance" maskUnits="userSpaceOnUse" x="0" y="0" width="838" height="143">
<path d="M837.247 0.474609H0.560547V142.74H837.247V0.474609Z" fill="white"/>
</mask>
<g mask="url(#mask0_8242_2411)">
<path fill-rule="evenodd" clip-rule="evenodd" d="M59.6276 5.69267C59.1855 3.08238 62.8605 2.0273 63.8705 4.47457L65.8397 9.24639C65.9012 9.39542 65.9481 9.54634 65.9813 9.69769C70.7038 8.55908 75.4608 7.98558 80.1718 7.94107C80.1668 7.78528 80.1753 7.62661 80.1992 7.46626L80.95 2.37175C81.3366 -0.247387 85.1574 -0.11518 85.3616 2.52439L85.7595 7.65865C85.7715 7.82085 85.7694 7.98023 85.7539 8.1358C90.5451 8.51577 95.2525 9.43929 99.7895 10.867C99.8332 10.7176 99.8902 10.5696 99.9628 10.4245L102.256 5.80251C103.432 3.4309 107.025 4.73745 106.404 7.31095L105.193 12.3266C105.155 12.4838 105.104 12.6341 105.041 12.7765C109.45 14.6014 113.651 16.9194 117.556 19.6907C117.642 19.5667 117.74 19.4481 117.849 19.3363L121.458 15.649C123.31 13.7571 126.323 16.1101 124.937 18.3657L122.236 22.7613C122.155 22.892 122.066 23.0128 121.969 23.1239C125.937 26.503 129.518 30.3964 132.596 34.7534C132.588 34.3323 132.586 33.914 132.583 33.503V33.4304C132.574 31.3416 134.463 29.736 136.603 29.4367C137.626 29.3011 138.665 29.5086 139.557 30.0268C140.45 30.545 141.145 31.3447 141.534 32.3005C142.753 35.3995 142.958 38.8045 142.122 42.0275C142.053 42.3183 141.973 42.609 141.882 42.9384C141.847 43.0636 141.811 43.1946 141.773 43.3332C144.902 45.0967 147.355 47.8506 148.746 51.1615C149.865 53.8276 148.804 56.5506 146.34 57.6319C145.07 58.1775 143.827 58.0336 142.688 57.4369C143.694 61.8683 144.206 66.3261 144.252 70.7434C144.384 70.7429 144.517 70.7523 144.652 70.7722L149.746 71.5234C152.366 71.9094 152.233 75.7308 149.593 75.9351L144.46 76.3323C144.325 76.3428 144.192 76.3428 144.062 76.3337C143.686 81.1313 142.765 85.8457 141.338 90.3898C141.458 90.4292 141.577 90.4778 141.694 90.5356L146.316 92.8287C148.687 94.0056 147.381 97.5988 144.807 96.9769L139.792 95.7663C139.666 95.736 139.545 95.6973 139.428 95.6508C137.602 100.067 135.282 104.275 132.507 108.187C132.603 108.258 132.694 108.336 132.782 108.422L136.469 112.031C138.361 113.883 136.008 116.897 133.752 115.51L129.357 112.809C129.255 112.747 129.159 112.678 129.069 112.605C125.994 116.217 122.492 119.508 118.603 122.39C118.668 122.485 118.729 122.584 118.784 122.689L121.17 127.251C122.398 129.597 119.228 131.736 117.511 129.72L114.173 125.801C114.096 125.71 114.026 125.617 113.963 125.519C110.677 127.53 107.161 129.268 103.432 130.693C102.616 131.004 101.797 131.299 100.977 131.575C101.01 131.683 101.036 131.795 101.056 131.909L101.918 136.999C102.359 139.609 98.6845 140.664 97.6746 138.216L95.7054 133.445C95.6624 133.34 95.6258 133.233 95.5969 133.127C90.8635 134.269 86.0955 134.844 81.374 134.888C81.3719 134.999 81.3627 135.112 81.3458 135.226L80.595 140.319C80.2084 142.938 76.3877 142.806 76.1834 140.166L75.7862 135.034C75.7771 134.918 75.7756 134.803 75.7813 134.691C70.9801 134.308 66.2626 133.38 61.7171 131.945C61.6797 132.054 61.6349 132.162 61.5822 132.268L59.2896 136.889C58.1129 139.26 54.5196 137.954 55.141 135.38L56.3518 130.366C56.38 130.249 56.4155 130.136 56.4574 130.027C52.0429 128.194 47.8367 125.867 43.9283 123.084C43.8579 123.178 43.7804 123.269 43.6957 123.356L40.0871 127.042C38.2352 128.934 35.2215 126.581 36.6078 124.326L39.3089 119.931C39.3721 119.827 39.4411 119.731 39.5151 119.64C35.9089 116.56 32.6251 113.054 29.749 109.161C29.6488 109.233 29.5423 109.298 29.4296 109.358L24.8673 111.744C22.5214 112.971 20.3823 109.801 22.3977 108.085L26.3171 104.746C26.4166 104.661 26.5203 104.585 26.6274 104.518C25.0533 101.937 23.6469 99.213 22.4282 96.3565L13.4705 108.231C12.4861 109.536 10.5689 109.677 9.52147 108.422C0.837553 98.0186 -0.0698253 83.9928 0.842781 75.7576C1.02982 74.0694 2.80136 73.1369 4.36597 73.7969L17.8211 79.4734C17.4972 76.9598 17.3276 74.4469 17.3069 71.9474C17.1707 71.9488 17.0325 71.9397 16.8929 71.9192L11.799 71.1678C9.17989 70.7817 9.31208 66.9604 11.9517 66.7562L17.0852 66.3589C17.2288 66.3478 17.3703 66.3482 17.5087 66.3592C17.895 61.566 18.8254 56.8564 20.2605 52.3183C20.1224 52.2761 19.9856 52.222 19.8514 52.1554L15.2297 49.8625C12.8581 48.6858 14.1647 45.0924 16.7382 45.7139L21.7533 46.9249C21.9016 46.9607 22.0435 47.008 22.1786 47.0656C24.0103 42.659 26.335 38.4601 29.1129 34.5582C28.9908 34.4735 28.8737 34.3772 28.7633 34.2691L25.0763 30.66C23.1843 28.8081 25.5373 25.7944 27.7928 27.1806L32.1883 29.8821C32.3197 29.9629 32.4413 30.0529 32.5529 30.1507C35.6282 26.5499 39.1275 23.2705 43.0131 20.3974C42.9197 20.2758 42.8353 20.1443 42.7614 20.0031L40.3748 15.4401C39.1477 13.0942 42.3168 10.9551 44.0335 12.9705L47.3726 16.8905C47.4777 17.0139 47.5693 17.1437 47.6476 17.2782C50.9192 15.2811 54.4187 13.5534 58.1279 12.1359C58.9531 11.8206 59.7809 11.5236 60.6106 11.2448C60.5576 11.0976 60.5168 10.9434 60.4896 10.7829L59.6276 5.69267ZM29.7301 90.9236C40.5042 119.119 72.0944 133.241 100.289 122.467C128.221 111.793 142.341 80.6883 132.125 52.6949C128.738 55.5394 124.675 58.1167 119.95 59.8486C109.349 63.7341 101.254 65.427 94.4222 66.0969C86.654 76.7816 73.4452 81.239 67.0543 82.1567L67.8685 66.1574C63.7069 66.3306 59.2354 66.8784 54.0063 68.2218C44.1872 70.7443 35.0412 74.8582 26.7397 79.6354C27.3192 83.4202 28.3077 87.2015 29.7301 90.9236ZM43.6593 92.2956C41.0411 92.7618 38.5409 91.0166 38.0751 88.3988C37.6091 85.7802 39.3539 83.28 41.9721 82.8138C44.5903 82.3483 47.0904 84.0928 47.5564 86.7113C48.0223 89.3298 46.2775 91.83 43.6593 92.2956ZM65.8588 92.878C64.15 93.1823 62.5183 92.0434 62.2142 90.3341C61.91 88.6255 63.0488 86.9937 64.7576 86.6895C66.4664 86.3852 68.0982 87.524 68.4023 89.2333C68.7064 90.9419 67.5676 92.5738 65.8588 92.878ZM94.0468 91.7765C92.3382 92.0808 90.7064 90.9419 90.4022 89.2333C90.0979 87.524 91.2367 85.8922 92.9453 85.5887C94.6546 85.2844 96.2864 86.4233 96.59 88.1318C96.8942 89.8404 95.7554 91.4723 94.0468 91.7765ZM99.9163 106.83C100.221 108.538 101.852 109.677 103.561 109.373C105.27 109.069 106.408 107.437 106.104 105.728C105.801 104.02 104.169 102.881 102.459 103.185C100.751 103.489 99.612 105.121 99.9163 106.83ZM66.9742 114.503C65.2654 114.807 63.6336 113.668 63.3295 111.96C63.0254 110.251 64.1642 108.619 65.873 108.315C67.5818 108.011 69.2135 109.15 69.5176 110.858C69.8217 112.568 68.683 114.199 66.9742 114.503ZM50.0137 101.22C50.3178 102.93 51.9495 104.068 53.6583 103.764C55.3671 103.46 56.5059 101.828 56.2018 100.119C55.8977 98.4102 54.2659 97.272 52.5571 97.5756C50.8483 97.8798 49.7096 99.5117 50.0137 101.22ZM80.6993 102.233C78.99 102.537 77.3589 101.398 77.0546 99.6891C76.7504 97.9805 77.8892 96.3487 79.5978 96.0445C81.3064 95.7402 82.9382 96.879 83.2424 98.5883C83.5467 100.297 82.4079 101.929 80.6993 102.233ZM107.526 89.377C107.992 91.9955 110.492 93.7401 113.11 93.2745C115.729 92.8083 117.473 90.3081 117.007 87.6903C116.542 85.0717 114.041 83.3272 111.423 83.7928C108.805 84.259 107.06 86.7592 107.526 89.377ZM80.5725 113.783C81.0387 116.402 83.5389 118.146 86.1575 117.68C88.7753 117.215 90.5198 114.714 90.0542 112.096C89.588 109.478 87.0878 107.733 84.47 108.199C81.8515 108.665 80.107 111.165 80.5725 113.783ZM117.389 39.8968C118.353 44.1309 115.853 48.3099 111.807 49.2309C107.761 50.1519 103.699 47.4661 102.736 43.232C101.772 38.9979 104.271 34.8189 108.318 33.8979C112.364 32.9769 116.425 35.6627 117.389 39.8968Z" fill="url(#paint0_linear_8242_2411)"/>
<path d="M112.115 45.554C113.938 45.1392 115.027 43.0982 114.549 40.9952C114.07 38.8921 112.204 37.5235 110.382 37.9384C108.559 38.3532 107.47 40.3943 107.949 42.4973C108.428 44.6003 110.293 45.9688 112.115 45.554Z" fill="#4A98EA"/>
<path fill-rule="evenodd" clip-rule="evenodd" d="M365.42 36.0389C365.42 16.6131 379.974 0.865247 397.927 0.865234V18.0463C388.743 18.0463 381.298 26.1019 381.298 36.0389V36.0397H397.927V53.2207H381.298V106.387H365.42V36.0389ZM356.055 1.37563C338.102 1.37563 323.548 17.1228 323.548 36.5482L323.547 106.896H339.426V36.5493C339.426 26.6123 346.872 18.5567 356.055 18.5567V1.37563ZM204.215 89.7144C213.399 89.7144 220.844 81.6588 220.844 71.722C220.844 61.7847 213.399 53.7292 204.215 53.7292C195.031 53.7292 187.586 61.7847 187.586 71.722C187.586 81.6588 195.031 89.7144 204.215 89.7144ZM204.215 106.895C198.139 106.895 192.451 105.092 187.586 101.951V141.817H171.707V71.722C171.707 52.2959 186.262 36.5482 204.215 36.5482C222.169 36.5482 236.723 52.2959 236.723 71.722C236.723 91.1476 222.169 106.895 204.215 106.895ZM308.878 36.5482H292.999V71.7213C292.998 81.6581 285.554 89.7137 276.37 89.7137C267.186 89.7137 259.741 81.6581 259.741 71.7213V71.7199V36.5482H243.862V71.7199V71.7213C243.863 91.1469 258.417 106.895 276.37 106.895C294.324 106.895 308.878 91.1469 308.878 71.7206L308.878 36.5482ZM339.427 36.5489V53.7299H356.056V36.5489H339.427ZM459.783 49.104C462.763 53.0942 464.88 57.7126 466.023 62.6217C466.023 62.6217 466.379 64.1129 466.657 66.5224C466.935 68.9318 467.007 71.2114 467.007 71.2114V71.2128C467.007 74.1758 466.668 77.0535 466.03 79.803H459.574L419.882 79.8037C422.7 85.4056 428.189 89.2073 434.498 89.2073C438.731 89.2073 442.594 87.4966 445.529 84.6787L456.061 97.5354C450.495 102.872 443.407 105.984 435.978 106.35C428.548 106.716 421.228 104.315 415.237 99.5469C409.246 94.7789 404.947 87.9325 403.058 80.1495C401.168 72.3672 401.802 64.1187 404.854 56.7805C407.905 49.4423 413.19 43.458 419.826 39.8259C426.462 36.1938 434.049 35.1336 441.32 36.822C448.592 38.5104 455.108 42.8455 459.783 49.104ZM419.882 62.6229C422.701 57.0213 428.189 53.2197 434.498 53.2197C440.808 53.2197 446.296 57.0213 449.114 62.6229H419.882ZM490.024 71.7192C490.024 61.8015 497.44 53.758 506.6 53.7268V36.5457C488.671 36.5769 474.145 52.3127 474.145 71.7192H490.024ZM474.145 106.894H490.024V71.7213H474.145V106.894Z" fill="white"/>
<path fill-rule="evenodd" clip-rule="evenodd" d="M526.662 106.76V35.9189H532.296V106.76H526.662Z" fill="url(#paint1_linear_8242_2411)"/>
<path d="M825.121 35.9007C821.72 35.9007 818.917 34.9169 816.719 32.9492C814.606 30.9059 813.543 28.4084 813.543 25.4568C813.543 22.4296 814.606 19.9322 816.719 17.9645C818.917 15.921 821.72 14.8994 825.121 14.8994C828.453 14.8994 831.178 15.921 833.298 17.9645C835.488 19.9322 836.587 22.4296 836.587 25.4568C836.587 28.4084 835.488 30.9059 833.298 32.9492C831.178 34.9169 828.453 35.9007 825.121 35.9007ZM834.77 42.485V105.83H815.36V42.485H834.77Z" fill="white"/>
<path d="M805.155 26.1426V41.695H772.687V58.496H796.985V73.594H772.687V105.834H753.277V26.1426H805.155Z" fill="white"/>
<path d="M729.555 35.9007C726.153 35.9007 723.35 34.9169 721.16 32.9492C719.04 30.9059 717.977 28.4084 717.977 25.4568C717.977 22.4296 719.04 19.9322 721.16 17.9645C723.35 15.921 726.153 14.8994 729.555 14.8994C732.886 14.8994 735.612 15.921 737.732 17.9645C739.929 19.9322 741.021 22.4296 741.021 25.4568C741.021 28.4084 739.929 30.9059 737.732 32.9492C735.612 34.9169 732.886 35.9007 729.555 35.9007ZM739.204 42.485V105.83H719.794V42.485H739.204Z" fill="white"/>
<path d="M681.899 41.8086C689.316 41.8086 695.22 44.2304 699.609 49.074C704.074 53.8418 706.307 60.426 706.307 68.8266V105.834H687.008V71.4377C687.008 67.1994 685.911 63.9073 683.716 61.5613C681.521 59.2152 678.57 58.0421 674.862 58.0421C671.153 58.0421 668.202 59.2152 666.007 61.5613C663.812 63.9073 662.715 67.1994 662.715 71.4377V105.834H643.303V42.4897H662.715V50.8903C664.683 48.0901 667.331 45.8953 670.661 44.3061C673.991 42.6411 677.737 41.8086 681.899 41.8086Z" fill="white"/>
<path d="M582.334 26.1426V73.8215C582.334 78.5895 583.507 82.2595 585.853 84.833C588.199 87.4057 591.642 88.6925 596.183 88.6925C600.724 88.6925 604.205 87.4057 606.627 84.833C609.049 82.2595 610.26 78.5895 610.26 73.8215V26.1426H629.672V73.7081C629.672 80.8221 628.158 86.8388 625.131 91.7575C622.104 96.6769 618.017 100.385 612.871 102.883C607.8 105.38 602.124 106.629 595.843 106.629C589.561 106.629 583.923 105.418 578.928 102.996C574.009 100.499 570.111 96.7903 567.236 91.8709C564.359 86.8761 562.922 80.8221 562.922 73.7081V26.1426H582.334Z" fill="white"/>
</g>
</g>
<path d="M714.865 140.925L700.591 147.81L697.736 137.23L685.814 157.718L721.582 139.917L704.621 162.084L674.562 177.197H658.609L692.699 118.422H708.652L714.865 140.925ZM724.605 177.197H708.652L705.125 165.526L717.216 149.909L724.605 177.197ZM786.75 118.422L754.339 177.197H738.386L722.433 118.422H738.386L749.05 157.802L770.796 118.422H786.75ZM811.398 142.1H813.833C831.13 142.1 837.007 147.306 837.007 156.458C837.007 166.618 830.794 177.197 819.627 177.197H779.324L787.636 165.442H815.345C819.627 165.442 821.39 162.504 821.81 159.397C822.398 155.451 818.787 153.855 812.154 153.855H804.345C791.919 153.855 786.461 148.649 786.461 139.497C786.461 129.925 792.338 118.422 803.086 118.422H841.038L832.725 130.177H809.719C805.437 130.177 802.162 133.2 801.742 136.391C801.155 140.421 804.765 142.1 811.398 142.1Z" fill="url(#paint2_linear_8242_2411)"/>
<defs>
<linearGradient id="paint0_linear_8242_2411" x1="89.0605" y1="0.474604" x2="151.117" y2="101.429" gradientUnits="userSpaceOnUse">
<stop offset="0.0677083" stop-color="#874FFF"/>
<stop offset="0.463542" stop-color="#36AFE2"/>
<stop offset="0.859375" stop-color="#41FF54"/>
</linearGradient>
<linearGradient id="paint1_linear_8242_2411" x1="526.31" y1="35.9189" x2="526.31" y2="106.76" gradientUnits="userSpaceOnUse">
<stop stop-color="#884FFF"/>
<stop offset="0.465034" stop-color="#4A98EA"/>
<stop offset="1" stop-color="#41FF54"/>
</linearGradient>
<linearGradient id="paint2_linear_8242_2411" x1="837.294" y1="184.57" x2="593.042" y2="92.3738" gradientUnits="userSpaceOnUse">
<stop stop-color="#7F4FFF"/>
<stop offset="1" stop-color="#FB4FFF"/>
</linearGradient>
<clipPath id="clip0_8242_2411">
<rect width="836.686" height="142.265" fill="white" transform="translate(0.560547 0.476562)"/>
</clipPath>
</defs>
</svg>
