<svg xmlns="http://www.w3.org/2000/svg" xmlns:xlink="http://www.w3.org/1999/xlink" fill="none" version="1.1" width="30" height="30" viewBox="0 0 30 30"><defs><clipPath id="master_svg0_0_57165"><rect x="0" y="0" width="30" height="30" rx="0"/></clipPath></defs><g clip-path="url(#master_svg0_0_57165)"><g style="opacity:0.15000000596046448;"><ellipse cx="15" cy="15" rx="15" ry="15" fill="#8B8E9F" fill-opacity="1"/></g><g transform="matrix(0.7071067690849304,-0.7071067690849304,0.7071067690849304,0.7071067690849304,-9.274835891606926,8.658613723884628)"><g><rect x="11.626708984375" y="15.525024414062841" width="1.3675894737243652" height="12.992100715637207" rx="0.6837947368621826" fill="#000000" fill-opacity="1"/></g><g transform="matrix(0,1,-1,0,40.143829345703125,2.530731201171875)"><rect x="18.806549072265625" y="21.3372802734375" width="1.3675894737243652" height="12.992100715637207" rx="0.6837947368621826" fill="#000000" fill-opacity="1"/></g></g><g><g style="opacity:0.07999999821186066;"><g><g><ellipse cx="15" cy="-24.99993896484375" rx="15" ry="15" fill="#DCDFE6" fill-opacity="1"/></g></g></g><g><g><rect x="10.48504638671875" y="-31.000015258789062" width="9.647918701171875" height="1.5436670780181885" rx="0.7718335390090942" fill="#FFFFFF" fill-opacity="1"/></g><g transform="matrix(0.7071067690849304,-0.7071067690849304,0.7071067690849304,0.7071067690849304,17.429983294267913,0.23671498657949996)"><rect x="9.000732421875" y="-20.921493530273438" width="13.247725486755371" height="1.547373652458191" rx="0.7736868262290955" fill="#FFFFFF" fill-opacity="1"/></g><g transform="matrix(0,-1,1,0,39.93873596191406,-2.7654571533203125)"><rect x="18.586639404296875" y="-21.352096557617188" width="9.647918701171875" height="1.5436670780181885" rx="0.7718335390090942" fill="#FFFFFF" fill-opacity="1"/></g></g></g></g></svg>