<svg xmlns="http://www.w3.org/2000/svg" xmlns:xlink="http://www.w3.org/1999/xlink" fill="none" version="1.1" width="249.9912109375" height="155.96435546875" viewBox="0 0 249.9912109375 155.96435546875"><defs><mask id="master_svg0_sa198_39590"><g><rect x="61.01578915119171" y="2.7829174995422363" width="73.28349304199219" height="45.45431900024414" rx="0" fill="#FFFFFF" fill-opacity="1"/></g></mask><mask id="master_svg1_sa198_39608"><g><rect x="60.08815002441408" y="0" width="76.06640625" height="48.23723602294922" rx="0" fill="#FFFFFF" fill-opacity="1"/></g></mask></defs><g><g><g><path d="M124.1871826309204,51.5075080859375C124.1871826309204,51.5075080859375,67.2814326309204,51.5075080859375,67.2814326309204,51.5075080859375C67.2814326309204,51.5075080859375,62.57778263092041,45.0140380859375,62.57778263092041,45.0140380859375C62.57778263092041,45.0140380859375,118.66198263092042,45.0140380859375,118.66198263092042,45.0140380859375C118.66198263092042,45.0140380859375,124.1871826309204,51.5075080859375,124.1871826309204,51.5075080859375C124.1871826309204,51.5075080859375,124.1871826309204,51.5075080859375,124.1871826309204,51.5075080859375Z" fill="#A257FA" fill-opacity="1"/></g><g transform="matrix(0,-1,1,0,-40.52610778808594,161.38209533691406)"><path d="M60.42799377441406,107.4475715625C60.42799377441406,107.4475715625,108.93679377441407,108.2871115625,108.93679377441407,108.2871115625C108.93679377441407,108.2871115625,115.37379377441405,102.1762115625,115.37379377441405,102.1762115625C115.37379377441405,102.1762115625,66.17919377441406,100.9541015625,66.17919377441406,100.9541015625C66.17919377441406,100.9541015625,60.42799377441406,107.4475715625,60.42799377441406,107.4475715625C60.42799377441406,107.4475715625,60.42799377441406,107.4475715625,60.42799377441406,107.4475715625Z" fill="#A257FA" fill-opacity="1"/></g><g><rect x="61.14283752441406" y="44.43505859375" width="59.064754486083984" height="49.56144714355469" rx="5" fill-opacity="0" stroke-opacity="1" stroke="#191B1E" fill="none" stroke-width="2"/></g><g><rect x="62.14283752441406" y="45.43505859375" width="57.064754486083984" height="47.56144714355469" rx="4" fill="#D1D1D2" fill-opacity="1"/></g><g><path d="M124.18680783691406,52.50763203125C124.18680783691406,52.50763203125,67.28105783691406,52.50763203125,67.28105783691406,52.50763203125C67.28105783691406,52.50763203125,62.57740783691406,46.90283203125,62.57740783691406,46.90283203125C62.57740783691406,46.90283203125,118.66160783691407,46.90283203125,118.66160783691407,46.90283203125C118.66160783691407,46.90283203125,124.18680783691406,52.50763203125,124.18680783691406,52.50763203125C124.18680783691406,52.50763203125,124.18680783691406,52.50763203125,124.18680783691406,52.50763203125Z" fill="#D1D1D2" fill-opacity="1"/></g><g><rect x="68.14361763000488" y="52.43516540527344" width="57.064754486083984" height="47.56144714355469" rx="4" fill="#FFFFFF" fill-opacity="1"/><rect x="67.14361763000488" y="51.43516540527344" width="59.064754486083984" height="49.56144714355469" rx="5" fill-opacity="0" stroke-opacity="1" stroke="#191B1E" fill="none" stroke-width="2"/></g><g transform="matrix(-0.6401844024658203,-0.7682212591171265,0.7682212591171265,-0.6401844024658203,164.69109844260856,179.87341784811179)"><line x1="124.46965026855469" y1="50.36811828613281" x2="132.27990007400513" y2="50.36811828613281" fill-opacity="0" stroke-opacity="1" stroke="#191B1E" fill="none" stroke-width="2"/></g><g><path d="M62.928591836914066,44.7797051875L69.45886783691407,52.3553871875L67.94399783691406,53.6612071875L61.41372383691406,46.0855291875L62.928591836914066,44.7797051875Z" fill-rule="evenodd" fill="#191B1E" fill-opacity="1"/></g><g transform="matrix(-0.6747691035270691,-0.738028883934021,0.738028883934021,-0.6747691035270691,39.33224325675084,217.89146619183515)"><line x1="67.67578363418579" y1="99.27936553955078" x2="76.47418642044067" y2="99.27936553955078" fill-opacity="0" stroke-opacity="1" stroke="#000000" fill="none" stroke-width="2"/></g><g><path d="M103.01364108886719,73.5494211364746Q103.39874108886718,73.0848211364746,103.69814108886719,72.56082113647462Q103.9975410888672,72.03689113647461,104.20234108886719,71.46920113647461Q104.40704108886719,70.90151113647461,104.51094108886718,70.30705113647461Q104.6148410888672,69.71259113647461,104.6148410888672,69.10911113647461Q104.6148410888672,68.93832113647461,104.60644108886719,68.76774113647461Q104.59804108886719,68.59715113647461,104.58134108886719,68.42718113647462Q104.56454108886719,68.25721113647461,104.53954108886718,68.0882711364746Q104.51444108886719,67.91932113647461,104.48114108886719,67.75181113647461Q104.4478410888672,67.58430113647461,104.40634108886718,67.41863113647462Q104.3648410888672,67.25296113647461,104.31524108886718,67.08952113647462Q104.26564108886718,66.92608113647461,104.2081410888672,66.76527113647461Q104.15064108886719,66.60446113647461,104.08524108886719,66.4466711364746Q104.01984108886718,66.28888113647461,103.94684108886719,66.13449113647461Q103.87384108886718,65.98009113647461,103.79334108886718,65.82947113647461Q103.7128410888672,65.6788411364746,103.62504108886719,65.5323511364746Q103.53724108886719,65.3858611364746,103.44234108886718,65.2438511364746Q103.34744108886719,65.1018411364746,103.24564108886719,64.9646611364746Q103.1439410888672,64.8274811364746,103.03564108886718,64.6954511364746Q102.92724108886719,64.5634311364746,102.81254108886719,64.43688113647461Q102.6978410888672,64.31033113647462,102.57704108886719,64.18956113647461Q102.45634108886719,64.0688011364746,102.3297410888672,63.95410113647461Q102.20324108886719,63.839401136474606,102.07124108886718,63.73105113647461Q101.93914108886719,63.62270113647461,101.80194108886718,63.52096113647461Q101.66484108886719,63.41922113647461,101.52284108886718,63.32434113647461Q101.38084108886719,63.22945113647461,101.23434108886718,63.14164513647461Q101.0878410888672,63.05384013647461,100.9371410888672,62.97332913647461Q100.78654108886718,62.89281913647461,100.63216108886719,62.81979613647461Q100.47776108886718,62.74677313647461,100.31997108886719,62.68141313647461Q100.16218108886719,62.61605413647461,100.00138108886719,62.55851613647461Q99.8405710888672,62.50097813647461,99.67713108886718,62.45140013647461Q99.51369108886719,62.40182113647461,99.34802108886718,62.36032213647461Q99.18234108886719,62.318823136474606,99.01483108886718,62.28550313647461Q98.84732108886719,62.25218413647461,98.67838108886718,62.22712333647461Q98.50944108886719,62.20206293647461,98.33947108886719,62.18532243647461Q98.1695010888672,62.16858183647461,97.99891108886719,62.160201496474606Q97.82833108886719,62.15182113647461,97.65753108886719,62.15182113647461Q97.48674108886719,62.15182113647461,97.31616108886719,62.160201496474606Q97.14557108886719,62.16858183647461,96.9756010888672,62.18532243647461Q96.80563108886719,62.20206293647461,96.63669108886718,62.22712333647461Q96.46774108886719,62.25218413647461,96.30023108886719,62.28550313647461Q96.13272108886719,62.318823136474606,95.9670510888672,62.36032213647461Q95.80138108886719,62.40182113647461,95.6379410888672,62.45140013647461Q95.47450108886719,62.50097813647461,95.31369108886719,62.55851613647461Q95.15288108886719,62.61605413647461,94.99509108886718,62.68141313647461Q94.83730108886719,62.74677313647461,94.68291108886719,62.81979613647461Q94.52851108886719,62.89281913647461,94.37789108886719,62.97332913647461Q94.22726108886718,63.05384013647461,94.08077108886718,63.14164513647461Q93.93428108886718,63.22945113647461,93.79227108886718,63.32434113647461Q93.65026108886718,63.41922113647461,93.51308108886718,63.52096113647461Q93.37590108886718,63.62270113647461,93.24387108886718,63.73105113647461Q93.11185108886718,63.839401136474606,92.98530108886719,63.95410113647461Q92.8587510888672,64.0688011364746,92.73798108886719,64.18956113647461Q92.61722108886718,64.31033113647462,92.50252108886718,64.43688113647461Q92.38782108886718,64.5634311364746,92.27947108886718,64.6954511364746Q92.17112108886718,64.8274811364746,92.06938108886719,64.9646611364746Q91.96764108886718,65.1018411364746,91.8727610888672,65.2438511364746Q91.77787108886719,65.3858611364746,91.69006508886719,65.5323511364746Q91.60226008886718,65.6788411364746,91.52174908886718,65.82947113647461Q91.44123908886719,65.98009113647461,91.36821608886719,66.13449113647461Q91.2951930888672,66.28888113647461,91.22983308886718,66.4466711364746Q91.16447408886718,66.60446113647461,91.10693608886719,66.76527113647461Q91.04939808886719,66.92608113647461,90.99982008886718,67.08952113647462Q90.95024108886719,67.25296113647461,90.90874208886719,67.41863113647462Q90.86724308886718,67.58430113647461,90.83392308886718,67.75181113647461Q90.80060408886719,67.91932113647461,90.77554328886718,68.0882711364746Q90.75048288886718,68.25721113647461,90.73374238886719,68.42718113647462Q90.7170017888672,68.59715113647461,90.70862144886719,68.76774113647461Q90.70024108886719,68.93832113647461,90.70024108886719,69.10911113647461Q90.70024108886719,69.71259113647461,90.80414908886719,70.30705113647461Q90.9080580888672,70.90151113647461,91.11277108886719,71.46920113647461Q91.31748408886719,72.03689113647461,91.61688708886719,72.56082113647462Q91.91629108886718,73.0848211364746,92.3014410888672,73.5494211364746L90.70024108886719,92.7638211364746L104.6148410888672,92.7638211364746L103.01364108886719,73.5494211364746Z" fill-rule="evenodd" fill="#FFFFFF" fill-opacity="1"/><path d="M103.01364108886719,73.5494211364746Q103.39874108886718,73.0848211364746,103.69814108886719,72.56082113647462Q103.9975410888672,72.03689113647461,104.20234108886719,71.46920113647461Q104.40704108886719,70.90151113647461,104.51094108886718,70.30705113647461Q104.6148410888672,69.71259113647461,104.6148410888672,69.10911113647461Q104.6148410888672,68.93832113647461,104.60644108886719,68.76774113647461Q104.59804108886719,68.59715113647461,104.58134108886719,68.42718113647462Q104.56454108886719,68.25721113647461,104.53954108886718,68.0882711364746Q104.51444108886719,67.91932113647461,104.48114108886719,67.75181113647461Q104.4478410888672,67.58430113647461,104.40634108886718,67.41863113647462Q104.3648410888672,67.25296113647461,104.31524108886718,67.08952113647462Q104.26564108886718,66.92608113647461,104.2081410888672,66.76527113647461Q104.15064108886719,66.60446113647461,104.08524108886719,66.4466711364746Q104.01984108886718,66.28888113647461,103.94684108886719,66.13449113647461Q103.87384108886718,65.98009113647461,103.79334108886718,65.82947113647461Q103.7128410888672,65.6788411364746,103.62504108886719,65.5323511364746Q103.53724108886719,65.3858611364746,103.44234108886718,65.2438511364746Q103.34744108886719,65.1018411364746,103.24564108886719,64.9646611364746Q103.1439410888672,64.8274811364746,103.03564108886718,64.6954511364746Q102.92724108886719,64.5634311364746,102.81254108886719,64.43688113647461Q102.6978410888672,64.31033113647462,102.57704108886719,64.18956113647461Q102.45634108886719,64.0688011364746,102.3297410888672,63.95410113647461Q102.20324108886719,63.839401136474606,102.07124108886718,63.73105113647461Q101.93914108886719,63.62270113647461,101.80194108886718,63.52096113647461Q101.66484108886719,63.41922113647461,101.52284108886718,63.32434113647461Q101.38084108886719,63.22945113647461,101.23434108886718,63.14164513647461Q101.0878410888672,63.05384013647461,100.9371410888672,62.97332913647461Q100.78654108886718,62.89281913647461,100.63216108886719,62.81979613647461Q100.47776108886718,62.74677313647461,100.31997108886719,62.68141313647461Q100.16218108886719,62.61605413647461,100.00138108886719,62.55851613647461Q99.8405710888672,62.50097813647461,99.67713108886718,62.45140013647461Q99.51369108886719,62.40182113647461,99.34802108886718,62.36032213647461Q99.18234108886719,62.318823136474606,99.01483108886718,62.28550313647461Q98.84732108886719,62.25218413647461,98.67838108886718,62.22712333647461Q98.50944108886719,62.20206293647461,98.33947108886719,62.18532243647461Q98.1695010888672,62.16858183647461,97.99891108886719,62.160201496474606Q97.82833108886719,62.15182113647461,97.65753108886719,62.15182113647461Q97.48674108886719,62.15182113647461,97.31616108886719,62.160201496474606Q97.14557108886719,62.16858183647461,96.9756010888672,62.18532243647461Q96.80563108886719,62.20206293647461,96.63669108886718,62.22712333647461Q96.46774108886719,62.25218413647461,96.30023108886719,62.28550313647461Q96.13272108886719,62.318823136474606,95.9670510888672,62.36032213647461Q95.80138108886719,62.40182113647461,95.6379410888672,62.45140013647461Q95.47450108886719,62.50097813647461,95.31369108886719,62.55851613647461Q95.15288108886719,62.61605413647461,94.99509108886718,62.68141313647461Q94.83730108886719,62.74677313647461,94.68291108886719,62.81979613647461Q94.52851108886719,62.89281913647461,94.37789108886719,62.97332913647461Q94.22726108886718,63.05384013647461,94.08077108886718,63.14164513647461Q93.93428108886718,63.22945113647461,93.79227108886718,63.32434113647461Q93.65026108886718,63.41922113647461,93.51308108886718,63.52096113647461Q93.37590108886718,63.62270113647461,93.24387108886718,63.73105113647461Q93.11185108886718,63.839401136474606,92.98530108886719,63.95410113647461Q92.8587510888672,64.0688011364746,92.73798108886719,64.18956113647461Q92.61722108886718,64.31033113647462,92.50252108886718,64.43688113647461Q92.38782108886718,64.5634311364746,92.27947108886718,64.6954511364746Q92.17112108886718,64.8274811364746,92.06938108886719,64.9646611364746Q91.96764108886718,65.1018411364746,91.8727610888672,65.2438511364746Q91.77787108886719,65.3858611364746,91.69006508886719,65.5323511364746Q91.60226008886718,65.6788411364746,91.52174908886718,65.82947113647461Q91.44123908886719,65.98009113647461,91.36821608886719,66.13449113647461Q91.2951930888672,66.28888113647461,91.22983308886718,66.4466711364746Q91.16447408886718,66.60446113647461,91.10693608886719,66.76527113647461Q91.04939808886719,66.92608113647461,90.99982008886718,67.08952113647462Q90.95024108886719,67.25296113647461,90.90874208886719,67.41863113647462Q90.86724308886718,67.58430113647461,90.83392308886718,67.75181113647461Q90.80060408886719,67.91932113647461,90.77554328886718,68.0882711364746Q90.75048288886718,68.25721113647461,90.73374238886719,68.42718113647462Q90.7170017888672,68.59715113647461,90.70862144886719,68.76774113647461Q90.70024108886719,68.93832113647461,90.70024108886719,69.10911113647461Q90.70024108886719,69.71259113647461,90.80414908886719,70.30705113647461Q90.9080580888672,70.90151113647461,91.11277108886719,71.46920113647461Q91.31748408886719,72.03689113647461,91.61688708886719,72.56082113647462Q91.91629108886718,73.0848211364746,92.3014410888672,73.5494211364746L90.70024108886719,92.7638211364746L104.6148410888672,92.7638211364746L104.4898410888672,91.2638211364746L103.01364108886719,73.5494211364746ZM102.98464108886719,91.2638211364746L101.46794108886719,73.06362113647461L101.8588410888672,72.59212113647462Q103.1148410888672,71.07705113647461,103.1148410888672,69.10911113647461Q103.1148410888672,66.84863113647461,101.51644108886718,65.25022113647461Q99.91802108886719,63.65182113647461,97.65753108886719,63.65182113647461Q95.39705108886719,63.65182113647461,93.79864108886719,65.25022113647461Q92.20024108886719,66.84863113647461,92.20024108886719,69.10911113647461Q92.20024108886719,71.07705113647461,93.45622108886718,72.59212113647462L93.84712108886718,73.06362113647461L92.33044108886719,91.2638211364746L102.98464108886719,91.2638211364746Z" fill-rule="evenodd" fill="#191B1E" fill-opacity="1"/></g><g><path d="M99.9373661517334,72.57463822509766Q100.2783961517334,72.22445822509766,100.5457761517334,71.81623822509766Q100.8131461517334,71.40802822509765,100.9970461517334,70.95676822509766Q101.1809461517334,70.50550822509766,101.27464615173339,70.02776822509766Q101.3682461517334,69.55003822509765,101.3682461517334,69.06336822509766Q101.3682461517334,68.93923822509765,101.3621461517334,68.81526822509765Q101.3559461517334,68.69128822509765,101.3437461517334,68.56776822509765Q101.3314461517334,68.44423822509765,101.3130461517334,68.32145822509766Q101.2946461517334,68.19867822509765,101.2702461517334,68.07693822509765Q101.2458461517334,67.95519822509766,101.2153461517334,67.83479822509766Q101.1849461517334,67.71438822509765,101.1485761517334,67.59561822509765Q101.1122161517334,67.47683822509765,101.0700261517334,67.35996822509766Q101.0278261517334,67.24309822509765,100.9798961517334,67.12841822509766Q100.9319661517334,67.01374822509766,100.8784161517334,66.90153822509765Q100.8248661517334,66.78933822509765,100.7658161517334,66.67986822509765Q100.7067761517334,66.57039822509766,100.6423861517334,66.46393822509765Q100.5779961517334,66.35746822509766,100.5084061517334,66.25426822509766Q100.4388261517334,66.15105822509766,100.3642061517334,66.05135822509766Q100.2895961517334,65.95166822509766,100.2101461517334,65.85571822509766Q100.1306861517334,65.75976822509766,100.0465661517334,65.66779822509766Q99.96245615173339,65.57582822509765,99.8738861517334,65.48805822509766Q99.7853261517334,65.40028822509765,99.6925161517334,65.31692822509766Q99.5997161517334,65.23357822509766,99.5028961517334,65.15482822509766Q99.4060761517334,65.07608822509765,99.3054661517334,65.00214922509765Q99.2048661517334,64.92820922509766,99.1007261517334,64.85924922509766Q98.9965761517334,64.79028922509765,98.8891461517334,64.72647722509765Q98.7817161517334,64.66266522509765,98.6712561517334,64.60415322509766Q98.5607961517334,64.54564122509765,98.4475661517334,64.49257222509766Q98.3343461517334,64.43950222509766,98.2186261517334,64.39200222509766Q98.1029061517334,64.34450222509766,97.9849761517334,64.30268622509766Q97.8670461517334,64.26086922509765,97.74719615173339,64.22483822509766Q97.6273361517334,64.18880722509766,97.5058361517334,64.15864722509765Q97.3843361517334,64.12848822509766,97.2614961517334,64.10427252509766Q97.1386461517334,64.08005722509766,97.0147561517334,64.06184442509766Q96.8908561517334,64.04363172509765,96.7662161517334,64.03146542509765Q96.6415661517334,64.01929912509766,96.5164661517334,64.01320869509766Q96.3913661517334,64.00711822509766,96.2661161517334,64.00711822509766Q96.1408661517334,64.00711822509766,96.0157561517334,64.01320869509766Q95.8906561517334,64.01929912509766,95.7660161517334,64.03146542509765Q95.6413661517334,64.04363172509765,95.5174661517334,64.06184442509766Q95.3935761517334,64.08005722509766,95.2707261517334,64.10427252509766Q95.1478861517334,64.12848822509766,95.0263861517334,64.15864722509765Q94.9048861517334,64.18880722509766,94.7850361517334,64.22483822509766Q94.6651761517334,64.26086922509765,94.5472461517334,64.30268622509766Q94.4293161517334,64.34450222509766,94.31359615173339,64.39200222509766Q94.1978761517334,64.43950222509766,94.0846561517334,64.49257222509766Q93.9714261517334,64.54564122509765,93.8609661517334,64.60415322509766Q93.7505061517334,64.66266522509765,93.6430761517334,64.72647722509765Q93.5356461517334,64.79028922509765,93.4314961517334,64.85924922509766Q93.3273561517334,64.92820922509766,93.2267561517334,65.00214922509765Q93.1261561517334,65.07608822509765,93.0293361517334,65.15482822509766Q92.9325161517334,65.23357822509766,92.8397061517334,65.31692822509766Q92.7469061517334,65.40028822509765,92.6583361517334,65.48805822509766Q92.5697661517334,65.57582822509765,92.4856561517334,65.66779822509766Q92.4015461517334,65.75976822509766,92.3220861517334,65.85571822509766Q92.2426261517334,65.95166822509766,92.1680161517334,66.05135822509766Q92.0934021517334,66.15105822509766,92.0238161517334,66.25426822509766Q91.9542301517334,66.35746822509766,91.8898381517334,66.46393822509765Q91.8254461517334,66.57039822509766,91.7664031517334,66.67986822509765Q91.7073601517334,66.78933822509765,91.6538091517334,66.90153822509765Q91.6002571517334,67.01374822509766,91.5523251517334,67.12841822509766Q91.5043941517334,67.24309822509765,91.4621981517334,67.35996822509766Q91.4200021517334,67.47683822509765,91.38364415173339,67.59561822509765Q91.3472851517334,67.71438822509765,91.3168511517334,67.83479822509766Q91.2864181517334,67.95519822509766,91.26198285173339,68.07693822509765Q91.2375475517334,68.19867822509765,91.2191693517334,68.32145822509766Q91.20079125173339,68.44423822509765,91.1885144517334,68.56776822509765Q91.1762377517334,68.69128822509765,91.1700919317334,68.81526822509765Q91.1639461517334,68.93923822509765,91.1639461517334,69.06336822509766Q91.1639461517334,69.55004822509765,91.2576205517334,70.02779822509765Q91.3512951517334,70.50554822509766,91.5352041517334,70.95682822509765Q91.7191131517334,71.40809822509766,91.9865041517334,71.81631822509766Q92.2538961517334,72.22453822509766,92.5949461517334,72.57472822509766L91.62781315173339,90.05341822509766L100.9045061517334,90.05341822509766L99.9373661517334,72.57463822509766Z" fill-rule="evenodd" fill="#191B1E" fill-opacity="1"/><path d="M99.9373661517334,72.57463822509766Q100.2783961517334,72.22445822509766,100.5457761517334,71.81623822509766Q100.8131461517334,71.40802822509765,100.9970461517334,70.95676822509766Q101.1809461517334,70.50550822509766,101.27464615173339,70.02776822509766Q101.3682461517334,69.55003822509765,101.3682461517334,69.06336822509766Q101.3682461517334,68.93923822509765,101.3621461517334,68.81526822509765Q101.3559461517334,68.69128822509765,101.3437461517334,68.56776822509765Q101.3314461517334,68.44423822509765,101.3130461517334,68.32145822509766Q101.2946461517334,68.19867822509765,101.2702461517334,68.07693822509765Q101.2458461517334,67.95519822509766,101.2153461517334,67.83479822509766Q101.1849461517334,67.71438822509765,101.1485761517334,67.59561822509765Q101.1122161517334,67.47683822509765,101.0700261517334,67.35996822509766Q101.0278261517334,67.24309822509765,100.9798961517334,67.12841822509766Q100.9319661517334,67.01374822509766,100.8784161517334,66.90153822509765Q100.8248661517334,66.78933822509765,100.7658161517334,66.67986822509765Q100.7067761517334,66.57039822509766,100.6423861517334,66.46393822509765Q100.5779961517334,66.35746822509766,100.5084061517334,66.25426822509766Q100.4388261517334,66.15105822509766,100.3642061517334,66.05135822509766Q100.2895961517334,65.95166822509766,100.2101461517334,65.85571822509766Q100.1306861517334,65.75976822509766,100.0465661517334,65.66779822509766Q99.96245615173339,65.57582822509765,99.8738861517334,65.48805822509766Q99.7853261517334,65.40028822509765,99.6925161517334,65.31692822509766Q99.5997161517334,65.23357822509766,99.5028961517334,65.15482822509766Q99.4060761517334,65.07608822509765,99.3054661517334,65.00214922509765Q99.2048661517334,64.92820922509766,99.1007261517334,64.85924922509766Q98.9965761517334,64.79028922509765,98.8891461517334,64.72647722509765Q98.7817161517334,64.66266522509765,98.6712561517334,64.60415322509766Q98.5607961517334,64.54564122509765,98.4475661517334,64.49257222509766Q98.3343461517334,64.43950222509766,98.2186261517334,64.39200222509766Q98.1029061517334,64.34450222509766,97.9849761517334,64.30268622509766Q97.8670461517334,64.26086922509765,97.74719615173339,64.22483822509766Q97.6273361517334,64.18880722509766,97.5058361517334,64.15864722509765Q97.3843361517334,64.12848822509766,97.2614961517334,64.10427252509766Q97.1386461517334,64.08005722509766,97.0147561517334,64.06184442509766Q96.8908561517334,64.04363172509765,96.7662161517334,64.03146542509765Q96.6415661517334,64.01929912509766,96.5164661517334,64.01320869509766Q96.3913661517334,64.00711822509766,96.2661161517334,64.00711822509766Q96.1408661517334,64.00711822509766,96.0157561517334,64.01320869509766Q95.8906561517334,64.01929912509766,95.7660161517334,64.03146542509765Q95.6413661517334,64.04363172509765,95.5174661517334,64.06184442509766Q95.3935761517334,64.08005722509766,95.2707261517334,64.10427252509766Q95.1478861517334,64.12848822509766,95.0263861517334,64.15864722509765Q94.9048861517334,64.18880722509766,94.7850361517334,64.22483822509766Q94.6651761517334,64.26086922509765,94.5472461517334,64.30268622509766Q94.4293161517334,64.34450222509766,94.31359615173339,64.39200222509766Q94.1978761517334,64.43950222509766,94.0846561517334,64.49257222509766Q93.9714261517334,64.54564122509765,93.8609661517334,64.60415322509766Q93.7505061517334,64.66266522509765,93.6430761517334,64.72647722509765Q93.5356461517334,64.79028922509765,93.4314961517334,64.85924922509766Q93.3273561517334,64.92820922509766,93.2267561517334,65.00214922509765Q93.1261561517334,65.07608822509765,93.0293361517334,65.15482822509766Q92.9325161517334,65.23357822509766,92.8397061517334,65.31692822509766Q92.7469061517334,65.40028822509765,92.6583361517334,65.48805822509766Q92.5697661517334,65.57582822509765,92.4856561517334,65.66779822509766Q92.4015461517334,65.75976822509766,92.3220861517334,65.85571822509766Q92.2426261517334,65.95166822509766,92.1680161517334,66.05135822509766Q92.0934021517334,66.15105822509766,92.0238161517334,66.25426822509766Q91.9542301517334,66.35746822509766,91.8898381517334,66.46393822509765Q91.8254461517334,66.57039822509766,91.7664031517334,66.67986822509765Q91.7073601517334,66.78933822509765,91.6538091517334,66.90153822509765Q91.6002571517334,67.01374822509766,91.5523251517334,67.12841822509766Q91.5043941517334,67.24309822509765,91.4621981517334,67.35996822509766Q91.4200021517334,67.47683822509765,91.38364415173339,67.59561822509765Q91.3472851517334,67.71438822509765,91.3168511517334,67.83479822509766Q91.2864181517334,67.95519822509766,91.26198285173339,68.07693822509765Q91.2375475517334,68.19867822509765,91.2191693517334,68.32145822509766Q91.20079125173339,68.44423822509765,91.1885144517334,68.56776822509765Q91.1762377517334,68.69128822509765,91.1700919317334,68.81526822509765Q91.1639461517334,68.93923822509765,91.1639461517334,69.06336822509766Q91.1639461517334,69.55004822509765,91.2576205517334,70.02779822509765Q91.3512951517334,70.50554822509766,91.5352041517334,70.95682822509765Q91.7191131517334,71.40809822509766,91.9865041517334,71.81631822509766Q92.2538961517334,72.22453822509766,92.5949461517334,72.57472822509766L91.7108111517334,88.55341822509766L91.62781315173339,90.05341822509766L100.9045061517334,90.05341822509766L100.8215061517334,88.55341822509766L99.9373661517334,72.57463822509766ZM99.3192161517334,88.55341822509766L98.4032661517334,71.99991822509766L98.8627661517334,71.52810822509765Q99.8682761517334,70.49561822509766,99.8682761517334,69.06336822509766Q99.8682761517334,67.59429822509766,98.8180361517334,66.55349822509766Q97.7621461517334,65.50711822509766,96.2661161517334,65.50711822509766Q94.77007615173339,65.50711822509766,93.7141861517334,66.55349822509766Q92.6639461517334,67.59429822509766,92.6639461517334,69.06336822509766Q92.6639461517334,70.49566822509766,93.6695261517334,71.52816822509766L94.1290461517334,71.99998822509765L93.2131061517334,88.55341822509766L99.3192161517334,88.55341822509766Z" fill-rule="evenodd" fill="#191B1E" fill-opacity="1"/></g><g mask="url(#master_svg0_sa198_39590)"><g><rect x="72.86454117298126" y="10.921113014221191" width="41.23723602294922" height="69.06640625" rx="20.61861801147461" fill-opacity="0" stroke-opacity="1" stroke="#191B1E" fill="none" stroke-width="7"/></g></g><g mask="url(#master_svg1_sa198_39608)"><g><path d="M93.54847605285646,12.986948013305664C103.83097605285646,12.986948013305664,112.16647605285647,21.916288013305664,112.16647605285647,32.93114801330566L112.16647605285647,63.543248013305664C112.16647605285647,74.55814801330567,103.83097605285646,83.48754801330567,93.54847605285646,83.48754801330567C83.26596605285646,83.48754801330567,74.93037605285646,74.55814801330567,74.93037605285646,63.543248013305664L74.93037605285646,32.93114801330566C74.93037605285646,21.916288013305664,83.26596605285646,12.986948013305664,93.54847605285646,12.986948013305664ZM93.54847605285646,14.986948013305664Q90.19257605285645,14.986948013305664,87.12687605285646,16.375998013305665Q84.14964605285645,17.724948013305664,81.84546605285647,20.193248013305663Q79.52756605285646,22.676258013305663,78.25372605285646,25.902448013305666Q76.93037605285646,29.254048013305663,76.93037605285646,32.93114801330566L76.93037605285646,63.543248013305664Q76.93037605285646,67.22034801330567,78.25372605285646,70.57194801330567Q79.52756605285646,73.79814801330566,81.84546605285647,76.28124801330566Q84.14964605285645,78.74954801330567,87.12687605285646,80.09844801330567Q90.19257605285645,81.48754801330567,93.54847605285646,81.48754801330567Q96.90427605285646,81.48754801330567,99.97007605285646,80.09844801330567Q102.94727605285647,78.74954801330567,105.25147605285646,76.28124801330566Q107.56937605285646,73.79824801330567,108.84317605285645,70.57194801330567Q110.16647605285647,67.22034801330567,110.16647605285647,63.543248013305664L110.16647605285647,32.93114801330566Q110.16647605285647,29.254048013305663,108.84317605285645,25.902448013305666Q107.56937605285646,22.676268013305666,105.25147605285646,20.193248013305663Q102.94727605285647,17.724948013305664,99.97007605285646,16.375998013305665Q96.90427605285646,14.986948013305664,93.54847605285646,14.986948013305664Z" fill-rule="evenodd" fill="#D1D1D2" fill-opacity="1"/></g></g></g><g><g><path d="M25.9287109375,91.37844705581665C25.9287109375,91.37844705581665,212.0097109375,91.37844705581665,212.0097109375,91.37844705581665C216.9797109375,91.37844705581665,221.0097109375,95.40788705581664,221.0097109375,100.37844705581665C221.0097109375,100.37844705581665,221.0097109375,138.96444705581666,221.0097109375,138.96444705581666C221.0097109375,143.93504705581665,216.9797109375,147.96444705581666,212.0097109375,147.96444705581666C212.0097109375,147.96444705581666,25.9287109375,147.96444705581666,25.9287109375,147.96444705581666C20.9581509375,147.96444705581666,16.9287109375,143.93504705581665,16.9287109375,138.96444705581666C16.9287109375,138.96444705581666,16.9287109375,100.37844705581665,16.9287109375,100.37844705581665C16.9287109375,95.40788705581664,20.9581509375,91.37844705581665,25.9287109375,91.37844705581665C25.9287109375,91.37844705581665,25.9287109375,91.37844705581665,25.9287109375,91.37844705581665Z" fill="#D1D1D2" fill-opacity="1"/></g><g><path d="M14.9287109375,100.37844848632812L14.9287109375,138.96444848632814Q14.9287109375,141.20104848632812,15.7939709375,143.24674848632813Q16.6290649375,145.22114848632813,18.1505409375,146.7426484863281Q19.6720109375,148.2641484863281,21.6464009375,149.09914848632812Q23.692090937499998,149.96444848632814,25.9287109375,149.96444848632814L212.0097109375,149.96444848632814Q214.2457109375,149.96444848632814,216.2917109375,149.09914848632812Q218.2657109375,148.26404848632814,219.7877109375,146.7426484863281Q221.3087109375,145.22114848632813,222.1437109375,143.24674848632813Q223.0097109375,141.20104848632812,223.0097109375,138.96444848632814L223.0097109375,100.37844848632812Q223.0097109375,98.14182848632812,222.1437109375,96.09613848632813Q221.3087109375,94.12174848632813,219.7877109375,92.60027848632812Q218.2657109375,91.07881048632812,216.2917109375,90.24370848632813Q214.2457109375,89.37844848632812,212.0097109375,89.37844848632812L25.9287109375,89.37844848632812Q23.692090937499998,89.37844848632812,21.6464009375,90.24370848632813Q19.6720109375,91.07880148632813,18.1505409375,92.60027848632812Q16.6290639375,94.12174848632813,15.7939709375,96.09613848632813Q14.9287109375,98.14182848632812,14.9287109375,100.37844848632812ZM212.0097109375,91.37844848632812L25.9287109375,91.37844848632812C20.9581509375,91.37844848632812,16.9287109375,95.40788848632812,16.9287109375,100.37844848632812L16.9287109375,138.96444848632814C16.9287109375,143.93504848632813,20.9581509375,147.96444848632814,25.9287109375,147.96444848632814L212.0097109375,147.96444848632814C216.9797109375,147.96444848632814,221.0097109375,143.93504848632813,221.0097109375,138.96444848632814L221.0097109375,100.37844848632812C221.0097109375,95.40788848632812,216.9797109375,91.37844848632812,212.0097109375,91.37844848632812Z" fill-rule="evenodd" fill="#191B1E" fill-opacity="1"/></g><g><rect x="22.92891025543213" y="97.37855386734009" width="204.0806121826172" height="56.58599853515625" rx="9" fill="#FFFFFF" fill-opacity="1"/><rect x="21.92891025543213" y="96.37855386734009" width="206.0806121826172" height="58.58599853515625" rx="10" fill-opacity="0" stroke-opacity="1" stroke="#191B1E" fill="none" stroke-width="2"/></g><g transform="matrix(-0.7071067690849304,-0.7071067690849304,0.7071067690849304,-0.7071067690849304,316.28820631108795,329.6133079243285)"><line x1="226.4092559814453" y1="98.30122327804565" x2="237.7229642868042" y2="98.30122327804565" fill-opacity="0" stroke-opacity="1" stroke="#191B1E" fill="none" stroke-width="2"/></g><g transform="matrix(-0.6866129636764526,-0.7270231246948242,0.7270231246948242,-0.6866129636764526,-28.340381572774504,185.99218815073226)"><line x1="25.916250228881836" y1="98.1042275428772" x2="35.10328197479248" y2="98.1042275428772" fill-opacity="0" stroke-opacity="1" stroke="#191B1E" fill="none" stroke-width="2"/></g><g transform="matrix(-0.7071067690849304,-0.7071067690849304,0.7071067690849304,-0.7071067690849304,-63.60980823259814,276.2543994703363)"><line x1="25.409255027770996" y1="150.3012237548828" x2="33.89453601837158" y2="150.3012237548828" fill-opacity="0" stroke-opacity="1" stroke="#191B1E" fill="none" stroke-width="2"/></g></g><g><path d="M83.88722119140625,121.2845208984375L83.88722119140625,112.8294708984375L82.11774119140625,112.8294708984375L79.57477119140626,118.9876708984375L79.46930119140625,118.9876708984375L76.92633119140625,112.8294708984375L75.15680119140625,112.8294708984375L75.15680119140625,121.2845208984375L76.56305119140625,121.2845208984375L76.56305119140625,115.3372808984375L76.64508119140625,115.3372808984375L78.98297119140625,120.9564208984375L80.06110119140625,120.9564208984375L82.39899119140625,115.3372808984375L82.48102119140626,115.3372808984375L82.48102119140626,121.2845208984375L83.88722119140625,121.2845208984375ZM88.01222119140625,120.2474408984375C87.36772119140625,120.2474408984375,86.90482119140626,119.9251708984375,86.90482119140626,119.3861108984375C86.90482119140626,118.8646208984375,87.28572119140625,118.5716508984375,88.10012119140625,118.5189208984375L89.54742119140624,118.4251708984375L89.54742119140624,118.9349408984375C89.54742119140624,119.6790808984375,88.89122119140625,120.2474408984375,88.01222119140625,120.2474408984375ZM87.58452119140625,121.3900208984375C88.42242119140624,121.3900208984375,89.12552119140625,121.0267208984375,89.48292119140625,120.4056408984375L89.58262119140625,120.4056408984375L89.58262119140625,121.2845208984375L90.98292119140625,121.2845208984375L90.98292119140625,116.9075908984375C90.98292119140625,115.5482208984375,90.05722119140626,114.7454808984375,88.41072119140625,114.7454808984375C86.88722119140625,114.7454808984375,85.82672119140625,115.4661908984375,85.70952119140625,116.5970408984375L87.08062119140625,116.5970408984375C87.21542119140625,116.1634508984375,87.67242119140624,115.9290808984375,88.34042119140625,115.9290808984375C89.12552119140625,115.9290808984375,89.54742119140624,116.2806408984375,89.54742119140624,116.9075908984375L89.54742119140624,117.4466508984375L87.89512119140625,117.5462608984375C86.33652119140625,117.6400108984375,85.46342119140625,118.3079808984375,85.46342119140625,119.4681408984375C85.46342119140625,120.6400108984375,86.34822119140625,121.3900208984375,87.58452119140625,121.3900208984375ZM92.58262119140625,116.7083708984375C92.58262119140625,117.6751708984375,93.16262119140625,118.2435308984375,94.39312119140625,118.5247808984375L95.52982119140626,118.7884508984375C96.13922119140625,118.9232208984375,96.41462119140625,119.1517308984375,96.41462119140625,119.5150108984375C96.41462119140625,119.9896208984375,95.90482119140626,120.3118908984375,95.17242119140624,120.3118908984375C94.44582119140625,120.3118908984375,93.99472119140626,120.0306408984375,93.85402119140625,119.5560308984375L92.41852119140626,119.5560308984375C92.52982119140626,120.7220408984375,93.53762119140625,121.4134208984375,95.13722119140625,121.4134208984375C96.73692119140625,121.4134208984375,97.86772119140625,120.5931408984375,97.86772119140625,119.3626708984375C97.86772119140625,118.4193108984375,97.29942119140625,117.8919708984375,96.07472119140625,117.6165808984375L94.94392119140625,117.3587608984375C94.29942119140625,117.2122808984375,93.99472119140626,116.9896208984375,93.99472119140626,116.6263408984375C93.99472119140626,116.1634508984375,94.49272119140625,115.8470408984375,95.15482119140626,115.8470408984375C95.83452119140625,115.8470408984375,96.26222119140625,116.1341508984375,96.36772119140625,116.5853308984375L97.73292119140625,116.5853308984375C97.62752119140625,115.4193108984375,96.67242119140624,114.7454808984375,95.14902119140625,114.7454808984375C93.63722119140625,114.7454808984375,92.58262119140625,115.5482208984375,92.58262119140625,116.7083708984375ZM99.80132119140625,113.3040808984375L99.80132119140625,114.9154008984375L98.78762119140625,114.9154008984375L98.78762119140625,116.0755608984375L99.80132119140625,116.0755608984375L99.80132119140625,119.5736108984375C99.80132119140625,120.8158008984375,100.38722119140625,121.3138208984375,101.85792119140625,121.3138208984375C102.13922119140625,121.3138208984375,102.40872119140624,121.2845208984375,102.61972119140626,121.2435208984375L102.61972119140626,120.1068108984375C102.44392119140625,120.1243908984375,102.33262119140625,120.1361108984375,102.12752119140625,120.1361108984375C101.51812119140625,120.1361108984375,101.24862119140624,119.8548608984375,101.24862119140624,119.2220408984375L101.24862119140624,116.0755608984375L102.61972119140626,116.0755608984375L102.61972119140626,114.9154008984375L101.24862119140624,114.9154008984375L101.24862119140624,113.3040808984375L99.80132119140625,113.3040808984375ZM106.76222119140624,115.8997808984375C107.63532119140625,115.8997808984375,108.20952119140625,116.5091508984375,108.23882119140626,117.4583708984375L105.22122119140624,117.4583708984375C105.28572119140625,116.5208708984375,105.89512119140625,115.8997808984375,106.76222119140624,115.8997808984375ZM108.25052119140625,119.5208708984375C108.03962119140624,119.9954808984375,107.54152119140625,120.2591508984375,106.82082119140625,120.2591508984375C105.86582119140624,120.2591508984375,105.25052119140625,119.5911908984375,105.21542119140625,118.5247808984375L105.21542119140625,118.4486108984375L109.69192119140625,118.4486108984375L109.69192119140625,117.9798608984375C109.69192119140625,115.9583708984375,108.59622119140624,114.7454808984375,106.76812119140625,114.7454808984375C104.91072119140625,114.7454808984375,103.75642119140625,116.0404008984375,103.75642119140625,118.1029008984375C103.75642119140625,120.1654008984375,104.89312119140625,121.4134208984375,106.77982119140626,121.4134208984375C108.29152119140625,121.4134208984375,109.35212119140624,120.6868908984375,109.62752119140626,119.5208708984375L108.25052119140625,119.5208708984375ZM111.15092119140624,121.2845208984375L112.60402119140625,121.2845208984375L112.60402119140625,117.5814208984375C112.60402119140625,116.6849408984375,113.26032119140625,116.0990008984375,114.20372119140626,116.0990008984375C114.44972119140624,116.0990008984375,114.83652119140625,116.1400108984375,114.94782119140625,116.1810308984375L114.94782119140625,114.8333708984375C114.81302119140625,114.7923608984375,114.55522119140625,114.7689208984375,114.34432119140625,114.7689208984375C113.51812119140625,114.7689208984375,112.82672119140625,115.2376708984375,112.65092119140624,115.8704808984375L112.55132119140626,115.8704808984375L112.55132119140626,114.8743908984375L111.15092119140624,114.8743908984375L111.15092119140624,121.2845208984375ZM119.48882119140626,112.8294708984375L119.48882119140626,121.2845208984375L121.00052119140625,121.2845208984375L121.00052119140625,118.5130608984375L122.83452119140625,118.5130608984375C124.54552119140625,118.5130608984375,125.74082119140624,117.3646208984375,125.74082119140624,115.6888408984375C125.74082119140624,113.9837608984375,124.58652119140625,112.8294708984375,122.89902119140625,112.8294708984375L119.48882119140626,112.8294708984375ZM121.00052119140625,114.0950908984375L122.50052119140625,114.0950908984375C123.59042119140625,114.0950908984375,124.20562119140625,114.6517308984375,124.20562119140625,115.6888408984375C124.20562119140625,116.6966508984375,123.57282119140625,117.2591508984375,122.49472119140626,117.2591508984375L121.00052119140625,117.2591508984375L121.00052119140625,114.0950908984375ZM129.44392119140625,120.2474408984375C128.79942119140625,120.2474408984375,128.33652119140623,119.9251708984375,128.33652119140623,119.3861108984375C128.33652119140623,118.8646208984375,128.71732119140626,118.5716508984375,129.53182119140627,118.5189208984375L130.97902119140625,118.4251708984375L130.97902119140625,118.9349408984375C130.97902119140625,119.6790808984375,130.32282119140626,120.2474408984375,129.44392119140625,120.2474408984375ZM129.01622119140626,121.3900208984375C129.85402119140625,121.3900208984375,130.55722119140626,121.0267208984375,130.91462119140624,120.4056408984375L131.01422119140625,120.4056408984375L131.01422119140625,121.2845208984375L132.41462119140624,121.2845208984375L132.41462119140624,116.9075908984375C132.41462119140624,115.5482208984375,131.48882119140626,114.7454808984375,129.84232119140626,114.7454808984375C128.31892119140625,114.7454808984375,127.25832119140625,115.4661908984375,127.14122119140626,116.5970408984375L128.51222119140624,116.5970408984375C128.64702119140625,116.1634508984375,129.10402119140625,115.9290808984375,129.77202119140625,115.9290808984375C130.55722119140626,115.9290808984375,130.97902119140625,116.2806408984375,130.97902119140625,116.9075908984375L130.97902119140625,117.4466508984375L129.32672119140625,117.5462608984375C127.76812119140625,117.6400108984375,126.89512119140625,118.3079808984375,126.89512119140625,119.4681408984375C126.89512119140625,120.6400108984375,127.77982119140626,121.3900208984375,129.01622119140626,121.3900208984375ZM134.01422119140625,116.7083708984375C134.01422119140625,117.6751708984375,134.59432119140627,118.2435308984375,135.82472119140624,118.5247808984375L136.96152119140623,118.7884508984375C137.57082119140625,118.9232208984375,137.84622119140624,119.1517308984375,137.84622119140624,119.5150108984375C137.84622119140624,119.9896208984375,137.33652119140623,120.3118908984375,136.60402119140625,120.3118908984375C135.87752119140626,120.3118908984375,135.42632119140626,120.0306408984375,135.28572119140625,119.5560308984375L133.85012119140626,119.5560308984375C133.96152119140623,120.7220408984375,134.96932119140627,121.4134208984375,136.56892119140625,121.4134208984375C138.16852119140626,121.4134208984375,139.29942119140625,120.5931408984375,139.29942119140625,119.3626708984375C139.29942119140625,118.4193108984375,138.73102119140626,117.8919708984375,137.50642119140625,117.6165808984375L136.37552119140625,117.3587608984375C135.73102119140626,117.2122808984375,135.42632119140626,116.9896208984375,135.42632119140626,116.6263408984375C135.42632119140626,116.1634508984375,135.92442119140625,115.8470408984375,136.58652119140623,115.8470408984375C137.26622119140626,115.8470408984375,137.69392119140625,116.1341508984375,137.79942119140625,116.5853308984375L139.16462119140624,116.5853308984375C139.05912119140623,115.4193108984375,138.10402119140625,114.7454808984375,136.58062119140624,114.7454808984375C135.06892119140625,114.7454808984375,134.01422119140625,115.5482208984375,134.01422119140625,116.7083708984375ZM140.62362119140624,116.7083708984375C140.62362119140624,117.6751708984375,141.20372119140626,118.2435308984375,142.43412119140623,118.5247808984375L143.57082119140625,118.7884508984375C144.18022119140625,118.9232208984375,144.45562119140624,119.1517308984375,144.45562119140624,119.5150108984375C144.45562119140624,119.9896208984375,143.94582119140625,120.3118908984375,143.21342119140627,120.3118908984375C142.48692119140625,120.3118908984375,142.03572119140625,120.0306408984375,141.89512119140625,119.5560308984375L140.45952119140625,119.5560308984375C140.57082119140625,120.7220408984375,141.57872119140626,121.4134208984375,143.17832119140627,121.4134208984375C144.77792119140625,121.4134208984375,145.90872119140624,120.5931408984375,145.90872119140624,119.3626708984375C145.90872119140624,118.4193108984375,145.34042119140625,117.8919708984375,144.11582119140627,117.6165808984375L142.98492119140624,117.3587608984375C142.34042119140625,117.2122808984375,142.03572119140625,116.9896208984375,142.03572119140625,116.6263408984375C142.03572119140625,116.1634508984375,142.53372119140624,115.8470408984375,143.19582119140625,115.8470408984375C143.87552119140625,115.8470408984375,144.30332119140627,116.1341508984375,144.40872119140624,116.5853308984375L145.77402119140623,116.5853308984375C145.66852119140626,115.4193108984375,144.71342119140627,114.7454808984375,143.19002119140623,114.7454808984375C141.67832119140627,114.7454808984375,140.62362119140624,115.5482208984375,140.62362119140624,116.7083708984375ZM155.96342119140627,114.8743908984375L154.51622119140626,114.8743908984375L153.45562119140624,119.6615008984375L153.35602119140626,119.6615008984375L152.11382119140626,114.8743908984375L150.72512119140623,114.8743908984375L149.49472119140626,119.6615008984375L149.39512119140625,119.6615008984375L148.32872119140626,114.8743908984375L146.86382119140626,114.8743908984375L148.59822119140625,121.2845208984375L150.10992119140624,121.2845208984375L151.35212119140624,116.6673608984375L151.45172119140625,116.6673608984375L152.69972119140624,121.2845208984375L154.22902119140625,121.2845208984375L155.96342119140627,114.8743908984375ZM159.99472119140626,121.4134208984375C161.91072119140625,121.4134208984375,163.07672119140625,120.1595408984375,163.07672119140625,118.0794708984375C163.07672119140625,116.0052508984375,161.90482119140626,114.7454808984375,159.99472119140626,114.7454808984375C158.09042119140625,114.7454808984375,156.91262119140623,116.0111108984375,156.91262119140623,118.0794708984375C156.91262119140623,120.1595408984375,158.07282119140626,121.4134208984375,159.99472119140626,121.4134208984375ZM159.99472119140626,120.1947008984375C158.98102119140626,120.1947008984375,158.40092119140627,119.4212608984375,158.40092119140627,118.0794708984375C158.40092119140627,116.7435308984375,158.98102119140626,115.9642308984375,159.99472119140626,115.9642308984375C161.00252119140623,115.9642308984375,161.58262119140625,116.7435308984375,161.58262119140625,118.0794708984375C161.58262119140625,119.4212608984375,161.00832119140625,120.1947008984375,159.99472119140626,120.1947008984375ZM164.54152119140625,121.2845208984375L165.99472119140626,121.2845208984375L165.99472119140626,117.5814208984375C165.99472119140626,116.6849408984375,166.65092119140627,116.0990008984375,167.59432119140627,116.0990008984375C167.84042119140625,116.0990008984375,168.22712119140624,116.1400108984375,168.33842119140627,116.1810308984375L168.33842119140627,114.8333708984375C168.20372119140626,114.7923608984375,167.94582119140625,114.7689208984375,167.73492119140624,114.7689208984375C166.90872119140624,114.7689208984375,166.21732119140626,115.2376708984375,166.04152119140625,115.8704808984375L165.94192119140627,115.8704808984375L165.94192119140627,114.8743908984375L164.54152119140625,114.8743908984375L164.54152119140625,121.2845208984375ZM171.84822119140625,121.3900208984375C172.73882119140626,121.3900208984375,173.47712119140624,120.9740008984375,173.84072119140626,120.2708708984375L173.93972119140625,120.2708708984375L173.93972119140625,121.2845208984375L175.34672119140623,121.2845208984375L175.34672119140623,112.3958708984375L173.89272119140625,112.3958708984375L173.89272119140625,115.8939208984375L173.79372119140623,115.8939208984375C173.45372119140626,115.1908008984375,172.72712119140624,114.7689208984375,171.84822119140625,114.7689208984375C170.23102119140626,114.7689208984375,169.21152119140623,116.0462608984375,169.21152119140623,118.0736108984375C169.21152119140623,120.1126708984375,170.22512119140623,121.3900208984375,171.84822119140625,121.3900208984375ZM172.29942119140625,116.0052508984375C173.29552119140624,116.0052508984375,173.91072119140625,116.8021208984375,173.91072119140625,118.0794708984375C173.91072119140625,119.3685308984375,173.30132119140626,120.1536908984375,172.29942119140625,120.1536908984375C171.30332119140627,120.1536908984375,170.69972119140624,119.3743908984375,170.69972119140624,118.0794708984375C170.69972119140624,116.7904008984375,171.30912119140623,116.0052508984375,172.29942119140625,116.0052508984375Z" fill="#181B1E" fill-opacity="1"/></g><g><g><ellipse cx="142.70172119140625" cy="136.3350830078125" rx="2.5" ry="2.5" fill="#181B1E" fill-opacity="1"/></g><g><ellipse cx="90.7017593383789" cy="136.3350830078125" rx="2.5" ry="2.5" fill="#181B1E" fill-opacity="1"/></g><g><ellipse cx="159.7017593383789" cy="136.3350830078125" rx="2.5" ry="2.5" fill="#181B1E" fill-opacity="1"/></g><g><ellipse cx="124.70173645019531" cy="136.3350830078125" rx="2.5" ry="2.5" fill="#181B1E" fill-opacity="1"/></g><g><ellipse cx="193.70174407958984" cy="136.3350830078125" rx="2.5" ry="2.5" fill="#181B1E" fill-opacity="1"/></g><g><ellipse cx="73.70170021057129" cy="136.3350830078125" rx="2.5" ry="2.5" fill="#181B1E" fill-opacity="1"/></g><g><ellipse cx="107.70175170898438" cy="136.3350830078125" rx="2.5" ry="2.5" fill="#181B1E" fill-opacity="1"/></g><g><ellipse cx="176.70176696777344" cy="136.3350830078125" rx="2.5" ry="2.5" fill="#181B1E" fill-opacity="1"/></g><g><ellipse cx="56.701759338378906" cy="136.3350830078125" rx="2.5" ry="2.5" fill="#181B1E" fill-opacity="1"/></g></g><g><line x1="181.0913848876953" y1="77.296630859375" x2="193.15069389343262" y2="77.296630859375" fill-opacity="0" stroke-opacity="1" stroke="#000000" fill="none" stroke-width="1.5"/></g><g><g transform="matrix(0.9205048680305481,-0.3907311260700226,0.3907311260700226,0.9205048680305481,-15.35136456809559,58.52518384592537)"><rect x="136.15455627441406" y="66.98977184295654" width="10.20403003692627" height="10.20403003692627" rx="0" fill="#FFFFFF" fill-opacity="1"/><rect x="136.90455627441406" y="67.73977184295654" width="8.70403003692627" height="8.70403003692627" rx="0" fill-opacity="0" stroke-opacity="1" stroke="#191B1E" fill="none" stroke-width="1.5"/></g><g transform="matrix(-0.1333320438861847,-0.9910714030265808,0.9910714030265808,-0.1333320438861847,-65.45704849148441,107.6347075047143)"><line x1="14.333447456359863" y1="81.68765640258789" x2="24.301677703857422" y2="81.68765640258789" fill-opacity="0" stroke-opacity="1" stroke="#191B1E" fill="none" stroke-width="1.5"/></g><g transform="matrix(-0.9933243989944458,0.11535464227199554,-0.11535464227199554,-0.9933243989944458,27.167474308015727,175.55637437870092)"><line x1="8.503971099853516" y1="87.81428337097168" x2="16.949084281921387" y2="87.81428337097168" fill-opacity="0" stroke-opacity="1" stroke="#191B1E" fill="none" stroke-width="1.5"/></g><g transform="matrix(-0.8107485175132751,-0.585394561290741,0.585394561290741,-0.8107485175132751,-31.104494079238464,157.8046898528724)"><line x1="9.9559907913208" y1="83.18021202087402" x2="19.15726089477539" y2="83.18021202087402" fill-opacity="0" stroke-opacity="1" stroke="#191B1E" fill="none" stroke-width="1.5"/></g><g transform="matrix(0.30901700258255005,-0.9510564804077148,0.9510564804077148,0.30901700258255005,24.930627589660617,338.6029601919008)"><line x1="245.4888153076172" y1="151.3944549560547" x2="253.39947032928467" y2="151.3944549560547" fill-opacity="0" stroke-opacity="1" stroke="#191B1E" fill="none" stroke-width="1.5"/></g><g transform="matrix(0.9510564804077148,0.30901700258255005,-0.30901700258255005,0.9510564804077148,57.46834759499188,-67.55733835182946)"><line x1="242.00430297851562" y1="146.89173126220703" x2="249.9149580001831" y2="146.89173126220703" fill-opacity="0" stroke-opacity="1" stroke="#191B1E" fill="none" stroke-width="1.5"/></g><g transform="matrix(0.32730215787887573,-0.9449197053909302,0.9449197053909302,0.32730215787887573,74.86863597610818,270.73219521401984)"><line x1="227.5792694091797" y1="82.03316879272461" x2="235.089271068573" y2="82.03316879272461" fill-opacity="0" stroke-opacity="1" stroke="#191B1E" fill="none" stroke-width="1.5"/></g><g transform="matrix(0.8875277042388916,-0.46075430512428284,0.46075430512428284,0.8875277042388916,-13.776213488863675,115.82759504041178)"><line x1="230.36175537109375" y1="85.38165092468262" x2="240.03899097442627" y2="85.38165092468262" fill-opacity="0" stroke-opacity="1" stroke="#191B1E" fill="none" stroke-width="1.5"/></g></g></g></svg>