<?xml version="1.0" encoding="utf-8"?>
<svg viewBox="0 0 99.343 88.545" fill="none" xmlns="http://www.w3.org/2000/svg">
  <defs>
    <clipPath id="clip0_1940_18714">
      <rect width="105.688" height="45.6027" fill="white" transform="matrix(0.377414 0.134615 -0.343169 0.888967 80.1661 84.5078)"/>
    </clipPath>
    <clipPath id="clip1_1940_18714">
      <rect width="61.5248" height="14.9375" fill="white" transform="matrix(0.379596 0.108176 -0.319507 0.997079 82.7563 98.6152)"/>
    </clipPath>
    <linearGradient id="paint0_linear_1940_18714" x1="88.3289" y1="110.689" x2="78.1272" y2="110.785" gradientUnits="userSpaceOnUse">
      <stop stop-color="#6E89D3"/>
      <stop offset="1" stop-color="#677FF0"/>
    </linearGradient>
    <linearGradient id="paint1_linear_1940_18714" x1="78.8287" y1="119.516" x2="89.7113" y2="119.414" gradientUnits="userSpaceOnUse">
      <stop stop-color="#C4C5FC"/>
      <stop offset="1" stop-color="#CACEF6"/>
    </linearGradient>
    <linearGradient id="paint2_linear_1940_18714" x1="91.3732" y1="106.832" x2="92.9575" y2="112.373" gradientUnits="userSpaceOnUse">
      <stop stop-color="#D6CDFB"/>
      <stop offset="1" stop-color="#DEE1F9"/>
    </linearGradient>
    <linearGradient id="paint3_linear_1940_18714" x1="91.5253" y1="108.803" x2="101.279" y2="115.368" gradientUnits="userSpaceOnUse">
      <stop stop-color="#A795F2"/>
      <stop offset="0.51" stop-color="#B7D0E1"/>
      <stop offset="1" stop-color="#B7D0E1"/>
    </linearGradient>
    <linearGradient id="paint4_linear_1940_18714" x1="92.7743" y1="118.695" x2="91.19" y2="113.154" gradientUnits="userSpaceOnUse">
      <stop stop-color="#FBFCF7"/>
      <stop offset="1" stop-color="#ECF1F1"/>
    </linearGradient>
    <linearGradient id="paint5_linear_1940_18714" x1="92.889" y1="116.648" x2="103.111" y2="105.128" gradientUnits="userSpaceOnUse">
      <stop stop-color="#B3DCF5"/>
      <stop offset="0.34" stop-color="#B9DFF4"/>
      <stop offset="0.66" stop-color="#E1F0F3"/>
    </linearGradient>
    <clipPath id="clip2_1940_18714">
      <rect width="82.3509" height="24.7229" fill="white" transform="matrix(0.482291 0.117346 0.278697 1.30681 63.5911 76.5439)"/>
    </clipPath>
    <clipPath id="clip3_1940_18714">
      <rect width="48.7784" height="9.92089" fill="white" transform="matrix(0.477183 0.0813953 0.329941 1.2765 72.435 87.0891)"/>
    </clipPath>
    <linearGradient id="paint6_linear_1940_18714" x1="83.1691" y1="96.7299" x2="76.483" y2="100.782" gradientUnits="userSpaceOnUse">
      <stop stop-color="#6E89D3"/>
      <stop offset="1" stop-color="#677FF0"/>
    </linearGradient>
    <linearGradient id="paint7_linear_1940_18714" x1="79.399" y1="104.677" x2="86.5312" y2="100.354" gradientUnits="userSpaceOnUse">
      <stop stop-color="#C4C5FC"/>
      <stop offset="1" stop-color="#CACEF6"/>
    </linearGradient>
    <linearGradient id="paint8_linear_1940_18714" x1="83.8699" y1="93.3307" x2="86.1091" y2="98.6061" gradientUnits="userSpaceOnUse">
      <stop stop-color="#D6CDFB"/>
      <stop offset="1" stop-color="#DEE1F9"/>
    </linearGradient>
    <linearGradient id="paint9_linear_1940_18714" x1="84.9729" y1="94.9543" x2="96.909" y2="96.0755" gradientUnits="userSpaceOnUse">
      <stop stop-color="#A795F2"/>
      <stop offset="0.51" stop-color="#B7D0E1"/>
      <stop offset="1" stop-color="#B7D0E1"/>
    </linearGradient>
    <linearGradient id="paint10_linear_1940_18714" x1="90.9294" y1="103.073" x2="88.6902" y2="97.7974" gradientUnits="userSpaceOnUse">
      <stop stop-color="#FBFCF7"/>
      <stop offset="1" stop-color="#ECF1F1"/>
    </linearGradient>
    <linearGradient id="paint11_linear_1940_18714" x1="90.0163" y1="101.368" x2="94.8353" y2="92.0512" gradientUnits="userSpaceOnUse">
      <stop stop-color="#B3DCF5"/>
      <stop offset="0.34" stop-color="#B9DFF4"/>
      <stop offset="0.66" stop-color="#E1F0F3"/>
    </linearGradient>
    <clipPath id="clip4_1940_18714">
      <rect width="48.0627" height="35.8293" fill="white" transform="matrix(0.824618 -0.771788 0.495747 0.66392 43.9587 85.9395)"/>
    </clipPath>
    <clipPath id="clip5_1940_18714">
      <rect width="26.1144" height="11.9121" fill="white" transform="matrix(0.805498 -0.803437 0.547793 0.605248 56.8383 85.1057)"/>
    </clipPath>
    <linearGradient id="paint12_linear_1940_18714" x1="68.8406" y1="81.985" x2="66.0887" y2="92.817" gradientUnits="userSpaceOnUse">
      <stop stop-color="#6E89D3"/>
      <stop offset="1" stop-color="#677FF0"/>
    </linearGradient>
    <linearGradient id="paint13_linear_1940_18714" x1="67.9645" y1="92.5926" x2="70.9002" y2="81.0379" gradientUnits="userSpaceOnUse">
      <stop stop-color="#C4C5FC"/>
      <stop offset="1" stop-color="#CACEF6"/>
    </linearGradient>
    <linearGradient id="paint14_linear_1940_18714" x1="68.4367" y1="78.4004" x2="72.0199" y2="80.2634" gradientUnits="userSpaceOnUse">
      <stop stop-color="#D6CDFB"/>
      <stop offset="1" stop-color="#DEE1F9"/>
    </linearGradient>
    <linearGradient id="paint15_linear_1940_18714" x1="69.8562" y1="78.6104" x2="82.3562" y2="75.7499" gradientUnits="userSpaceOnUse">
      <stop stop-color="#A795F2"/>
      <stop offset="0.51" stop-color="#B7D0E1"/>
      <stop offset="1" stop-color="#B7D0E1"/>
    </linearGradient>
    <linearGradient id="paint16_linear_1940_18714" x1="77.3318" y1="79.2033" x2="73.7487" y2="77.3403" gradientUnits="userSpaceOnUse">
      <stop stop-color="#FBFCF7"/>
      <stop offset="1" stop-color="#ECF1F1"/>
    </linearGradient>
    <linearGradient id="paint17_linear_1940_18714" x1="76.0507" y1="78.7259" x2="70.7177" y2="69.9386" gradientUnits="userSpaceOnUse">
      <stop stop-color="#B3DCF5"/>
      <stop offset="0.34" stop-color="#B9DFF4"/>
      <stop offset="0.66" stop-color="#E1F0F3"/>
    </linearGradient>
  </defs>
  <ellipse cx="31.439" cy="7.628" rx="31.439" ry="7.628" transform="matrix(-0.9998750090599061, 0.01579900085926056, 0.01579900085926056, 0.9998750090599061, 89.81893920898438, 64.11510467529298)" fill="black"/>
  <g clip-path="url(#clip0_1940_18714)" transform="matrix(1, 0, 0, 1, -45.855064392089844, -49.708892822265625)">
    <path d="M114.946 109.683L114.946 109.684C114.856 111.766 114.176 113.849 113.003 115.884C111.814 117.947 110.107 119.974 107.984 121.835C103.743 125.553 97.9504 128.511 91.6173 129.791C85.2874 131.07 79.6389 130.427 75.6252 128.359C73.6181 127.324 72.0253 125.937 70.9599 124.264C69.8917 122.587 69.368 120.645 69.4604 118.529L69.4605 118.526C69.4632 118.458 69.4675 118.394 69.4723 118.324L69.4752 118.316L69.4834 118.185C69.4887 118.1 69.4967 118.015 69.5062 117.918L69.5074 117.906L69.5082 117.894C69.5416 117.359 69.5858 116.23 69.6214 115.243C69.6383 114.776 69.6534 114.337 69.6646 114.005L70.4899 113.848L70.6355 113.82L70.7663 113.544C71.5464 111.898 72.6687 110.25 74.0937 108.666C75.5167 107.085 77.2233 105.587 79.1525 104.236C83.0105 101.535 87.7287 99.4408 92.7891 98.4202L92.7891 98.4202C97.9865 97.3701 102.725 97.6158 106.476 98.8832C110.233 100.152 112.981 102.439 114.222 105.441L114.258 105.527L114.336 105.512L115.136 105.359L114.946 109.683Z" fill="#D3F500" stroke="black"/>
    <path d="M115.187 104.771C115.124 106.824 114.46 108.944 113.267 111.034C112.074 113.125 110.365 115.158 108.256 117.014C104.039 120.724 98.2636 123.687 91.9333 125.005C85.603 126.323 79.937 125.743 75.8951 123.753C73.8736 122.757 72.2692 121.414 71.1899 119.797C70.1111 118.18 69.5704 116.311 69.6336 114.257C69.6969 112.203 70.3603 110.084 71.5532 107.994C72.7467 105.903 74.4551 103.87 76.5643 102.014C80.7817 98.3039 86.5568 95.3409 92.8871 94.0226C99.2174 92.7044 104.883 93.2848 108.925 95.2751C110.947 96.2706 112.551 97.6134 113.631 99.2312C114.709 100.848 115.25 102.717 115.187 104.771Z" fill="white" stroke="black"/>
    <path d="M110.687 105.82C110.635 107.506 110.09 109.253 109.102 110.984C108.114 112.715 106.697 114.402 104.944 115.944C101.44 119.027 96.639 121.491 91.3743 122.588C86.1096 123.684 81.3992 123.201 78.0408 121.547C76.361 120.72 75.0303 119.605 74.1365 118.265C73.2432 116.926 72.7997 115.385 72.8516 113.699C72.9035 112.013 73.4482 110.266 74.436 108.535C75.4244 106.804 76.8414 105.117 78.5941 103.575C82.0982 100.492 86.8994 98.0276 92.1641 96.9312C97.4288 95.8349 102.139 96.3181 105.498 97.9719C107.177 98.7991 108.508 99.9139 109.402 101.254C110.295 102.593 110.739 104.134 110.687 105.82Z" fill="white" stroke="black"/>
  </g>
  <g clip-path="url(#clip1_1940_18714)" transform="matrix(1, 0, 0, 1, -45.855064392089844, -49.708892822265625)">
    <path d="M90.2939 103.803L77.9839 113.509L85.5879 111.295L90.2939 103.803Z" fill="url(#paint0_linear_1940_18714)"/>
    <path d="M90.5055 115.984L77.9832 113.509L85.5873 111.295L90.5055 115.984Z" fill="url(#paint1_linear_1940_18714)"/>
    <path d="M91.9787 103.382L87.1527 110.791L95.754 108.287L91.9787 103.382Z" fill="url(#paint2_linear_1940_18714)"/>
    <path d="M95.7544 108.287L106.111 105.271L91.9791 103.382L95.7544 108.287Z" fill="url(#paint3_linear_1940_18714)"/>
    <path d="M92.1878 115.329L87.1532 110.791L95.7545 108.287L92.1878 115.329Z" fill="url(#paint4_linear_1940_18714)"/>
    <path d="M95.7543 108.287L106.111 105.27L92.1877 115.329L95.7543 108.287Z" fill="url(#paint5_linear_1940_18714)"/>
  </g>
  <g clip-path="url(#clip2_1940_18714)" transform="matrix(1, 0, 0, 1, -45.855064392089844, -49.708892822265625)">
    <path d="M104.492 95.234L104.492 95.2341C104.953 96.0351 105.266 96.7934 105.468 97.4984C105.667 98.1977 105.781 98.9275 105.794 99.697C105.82 101.272 105.422 102.9 104.582 104.439C102.911 107.5 99.5927 110.03 95.0087 111.266C90.4282 112.501 85.4704 112.206 81.1614 110.735C79.0066 109.999 77.0198 108.971 75.3277 107.7C73.626 106.422 72.2582 104.923 71.3236 103.299L71.322 103.297C71.3135 103.282 71.3054 103.268 71.2974 103.254L71.2961 103.247L71.1781 103.035C71.1452 102.976 71.1133 102.915 71.0742 102.839L71.0655 102.822L71.0568 102.806C70.8209 102.382 70.3044 101.492 69.854 100.72C69.7628 100.564 69.6739 100.412 69.59 100.268L69.9948 100.165L70.1331 100.13L70.0842 99.7295C69.9385 98.5353 70.0408 97.2511 70.4398 95.9602C70.8351 94.6808 71.5049 93.4494 72.432 92.3212C74.2853 90.066 77.1427 88.2526 80.8059 87.2667L80.8059 87.2667C84.5669 86.2526 88.5827 86.27 92.2854 87.1239C95.993 87.9789 99.3689 89.6689 101.853 91.9737L101.919 92.0352L101.971 92.0219L102.558 91.8721L104.492 95.234Z" fill="#D3F500" stroke="black"/>
    <path d="M102.2 91.1253C103.095 92.6454 103.58 94.2767 103.618 95.9473C103.655 97.6143 103.245 99.2629 102.416 100.792C100.759 103.848 97.4589 106.379 92.8996 107.644C88.3403 108.909 83.4033 108.664 79.1168 107.257C76.9721 106.553 75.0069 105.563 73.3452 104.347C71.68 103.128 70.3757 101.724 69.4799 100.204C68.584 98.6839 68.0995 97.0526 68.0618 95.382C68.0242 93.715 68.4348 92.0664 69.2636 90.5374C70.92 87.4815 74.2204 84.9502 78.7797 83.6852C83.3391 82.4201 88.2761 82.6657 92.5625 84.0726C94.7073 84.7766 96.6725 85.7659 98.3341 86.9822C99.9994 88.2013 101.304 89.6051 102.2 91.1253Z" fill="white" stroke="black"/>
    <path d="M99.0114 92.1124C99.7374 93.3443 100.138 94.6795 100.169 96.0613C100.2 97.4395 99.8606 98.8067 99.1721 100.077C97.7962 102.616 95.0531 104.72 91.2615 105.772C87.4699 106.825 83.3657 106.62 79.8049 105.451C78.0231 104.866 76.3939 104.045 75.0202 103.039C73.6428 102.031 72.5781 100.88 71.8521 99.6484C71.1261 98.4164 70.7256 97.0813 70.6944 95.6994C70.6633 94.3212 71.0029 92.9541 71.6914 91.6837C73.0674 89.1452 75.8104 87.0404 79.602 85.9883C83.3936 84.9362 87.4979 85.1411 91.0586 86.3099C92.8405 86.8947 94.4696 87.7156 95.8434 88.7213C97.2208 89.7296 98.2854 90.8805 99.0114 92.1124Z" fill="white" stroke="black"/>
  </g>
  <g clip-path="url(#clip3_1940_18714)" transform="matrix(1, 0, 0, 1, -45.855064392089844, -49.708892822265625)">
    <path d="M81.4488 90.8906L75.7082 99.753L81.1225 97.4138L81.4488 90.8906Z" fill="url(#paint6_linear_1940_18714)"/>
    <path d="M87.6478 100.975L75.7079 99.7528L81.1222 97.4136L87.6478 100.975Z" fill="url(#paint7_linear_1940_18714)"/>
    <path d="M82.6834 90.4298L82.2133 96.892L88.3378 94.2462L82.6834 90.4298Z" fill="url(#paint8_linear_1940_18714)"/>
    <path d="M88.3376 94.2464L95.7113 91.0596L82.6832 90.4301L88.3376 94.2464Z" fill="url(#paint9_linear_1940_18714)"/>
    <path d="M88.7643 100.321L82.2135 96.8922L88.338 94.2464L88.7643 100.321Z" fill="url(#paint10_linear_1940_18714)"/>
    <path d="M88.3377 94.2462L95.7114 91.0594L88.764 100.321L88.3377 94.2462Z" fill="url(#paint11_linear_1940_18714)"/>
  </g>
  <g clip-path="url(#clip4_1940_18714)" transform="matrix(1, 0, 0, 1, -45.855064392089844, -49.708892822265625)">
    <path d="M87.4954 56.3412L87.4955 56.3412C90.3621 57.354 91.6168 60.8049 91.1834 65.7673C90.7514 70.714 88.6428 77.0535 84.9347 83.6008C81.2267 90.1479 76.6488 95.6158 72.2659 99.1684C67.8679 102.733 63.7682 104.296 60.8971 103.281L60.8953 103.281C60.8473 103.264 60.8043 103.247 60.7555 103.227C60.7538 103.227 60.7522 103.226 60.7505 103.225L60.7473 103.221L60.6666 103.19C60.6104 103.168 60.5552 103.143 60.492 103.114L60.4835 103.11L60.4748 103.107C60.1122 102.966 59.3281 102.695 58.6423 102.462C58.3118 102.35 58.0019 102.245 57.7688 102.167L58.1854 101.444L58.3494 101.159L58.2296 100.943C56.9795 98.6829 56.7858 95.0945 57.6681 90.7202C58.5486 86.3547 60.4923 81.2529 63.4565 76.022L63.4566 76.0218C66.5004 70.6476 70.1321 65.9978 73.763 62.5383C77.4019 59.0712 80.9977 56.8386 83.985 56.2164L84.2689 56.1572L84.4352 55.8682L84.7265 55.362L87.4954 56.3412Z" fill="#D3F500" stroke="black"/>
    <path d="M84.2257 55.18C87.0834 56.1238 88.3448 59.5126 87.9243 64.4371C87.5052 69.344 85.4172 75.6634 81.7359 82.221C78.0545 88.7785 73.5039 94.2845 69.1442 97.8899C64.7689 101.508 60.6925 103.134 57.8348 102.19C54.9771 101.246 53.7157 97.8575 54.1363 92.933C54.5553 88.0261 56.6433 81.7067 60.3246 75.1492C64.006 68.5916 68.5566 63.0856 72.9163 59.4802C77.2916 55.8619 81.3681 54.2361 84.2257 55.18Z" fill="white" stroke="black"/>
    <path d="M81.6731 59.8961C84.0163 60.67 85.0648 63.4543 84.716 67.539C84.3687 71.6061 82.6371 76.8503 79.5796 82.2963C76.5222 87.7423 72.7449 92.3109 69.1312 95.2993C65.5019 98.3005 62.144 99.6296 59.8008 98.8558C57.4575 98.0819 56.409 95.2976 56.7578 91.2129C57.1051 87.1458 58.8368 81.9017 61.8943 76.4557C64.9517 71.0096 68.729 66.441 72.3427 63.4527C75.972 60.4514 79.3298 59.1223 81.6731 59.8961Z" fill="white" stroke="black"/>
  </g>
  <g clip-path="url(#clip5_1940_18714)" transform="matrix(1, 0, 0, 1, -45.855064392089844, -49.708892822265625)">
    <path d="M65.6518 78.881L63.3639 92.3157L67.2955 84.6968L65.6518 78.881Z" fill="url(#paint12_linear_1940_18714)"/>
    <path d="M73.9133 80.8695L63.3634 92.3155L67.2948 84.6968L73.9133 80.8695Z" fill="url(#paint13_linear_1940_18714)"/>
    <path d="M66.5693 77.2048L68.0726 83.1198L72.5195 74.5019L66.5693 77.2048Z" fill="url(#paint14_linear_1940_18714)"/>
    <path d="M72.519 74.5018L77.8728 64.125L66.5688 77.2049L72.519 74.5018Z" fill="url(#paint15_linear_1940_18714)"/>
    <path d="M74.6731 79.1549L68.0721 83.1197L72.519 74.5017L74.6731 79.1549Z" fill="url(#paint16_linear_1940_18714)"/>
    <path d="M72.5193 74.5017L77.8731 64.1249L74.6732 79.1546L72.5193 74.5017Z" fill="url(#paint17_linear_1940_18714)"/>
  </g>
</svg>